<svg width="34" height="34" viewBox="0 0 34 34" fill="none" xmlns="http://www.w3.org/2000/svg">
<g id="uil:twitter-alt">
<path id="Vector" d="M32.5706 5.59573C32.5706 5.34568 32.5044 5.1001 32.3787 4.88393C32.253 4.66776 32.0723 4.48871 31.8551 4.36496C31.6378 4.24121 31.3916 4.17718 31.1416 4.17936C30.8915 4.18154 30.6465 4.24987 30.4315 4.37739C29.6019 4.87154 28.7087 5.24999 27.7766 5.50223C26.4463 4.36078 24.7497 3.73622 22.9968 3.74273C21.074 3.74503 19.2273 4.49445 17.8467 5.83276C16.4661 7.17107 15.6596 8.99352 15.5975 10.9153C11.8063 10.3109 8.37009 8.33206 5.94437 5.35631C5.79821 5.17919 5.61164 5.03976 5.40036 4.94978C5.18908 4.85979 4.95927 4.82188 4.73029 4.83923C4.50135 4.85817 4.28047 4.93257 4.08672 5.05597C3.89296 5.17938 3.73216 5.3481 3.6182 5.54756C3.03386 6.56741 2.69828 7.71071 2.63871 8.8846C2.57914 10.0585 2.79727 11.2299 3.27537 12.3036L3.27254 12.3051C3.05718 12.4374 2.87945 12.6228 2.75641 12.8436C2.63336 13.0644 2.56913 13.3131 2.56987 13.5659C2.5676 13.7738 2.58038 13.9817 2.60812 14.1878C2.75279 15.97 3.5426 17.6383 4.82945 18.8798C4.74213 19.0463 4.68888 19.2285 4.67283 19.4158C4.65677 19.6031 4.67823 19.7917 4.73595 19.9706C5.29692 21.719 6.49015 23.1952 8.08212 24.1101C6.46453 24.7355 4.71796 24.9535 2.99629 24.7448C2.67778 24.7052 2.35526 24.7749 2.08156 24.9425C1.80785 25.1102 1.59918 25.3658 1.48972 25.6675C1.38026 25.9692 1.37649 26.2992 1.47905 26.6033C1.5816 26.9074 1.78439 27.1677 2.0542 27.3416C5.01533 29.2484 8.46303 30.2621 11.985 30.2613C15.979 30.3063 19.8758 29.0301 23.0694 26.6312C26.263 24.2324 28.5743 20.8454 29.6438 16.9971C30.1438 15.3208 30.3991 13.5811 30.4017 11.8319L30.4003 11.5486C31.14 10.7507 31.713 9.81318 32.0857 8.79098C32.4584 7.76878 32.6232 6.68247 32.5706 5.59573ZM27.8871 10.1461C27.6529 10.4226 27.5342 10.7788 27.5556 11.1406C27.5698 11.3743 27.5684 11.6095 27.5684 11.8319C27.5654 13.3097 27.3487 14.7794 26.9252 16.1952C26.0521 19.47 24.1052 22.357 21.3964 24.3939C18.6875 26.4308 15.3735 27.4997 11.985 27.4294C10.7683 27.4296 9.55579 27.2865 8.37254 27.003C9.88173 26.5163 11.2928 25.7661 12.5404 24.7873C12.7704 24.6064 12.9388 24.3588 13.0224 24.0783C13.106 23.7979 13.1007 23.4984 13.0072 23.2211C12.9138 22.9438 12.7367 22.7023 12.5004 22.5297C12.2641 22.357 11.9801 22.2618 11.6875 22.2571C10.5099 22.2387 9.3854 21.7638 8.55104 20.9326C8.76259 20.8929 8.97273 20.8433 9.18145 20.7838C9.48749 20.6968 9.75533 20.5093 9.94183 20.2516C10.1283 19.9938 10.2226 19.6807 10.2095 19.3629C10.1965 19.045 10.0767 18.7407 9.86968 18.4992C9.66262 18.2576 9.38027 18.0928 9.06812 18.0312C8.38457 17.8962 7.74136 17.6053 7.18853 17.1813C6.63569 16.7572 6.18812 16.2113 5.88062 15.5861C6.13669 15.6211 6.39439 15.6428 6.6527 15.6512C6.95967 15.6563 7.26027 15.5634 7.51091 15.3861C7.76156 15.2089 7.94922 14.9563 8.0467 14.6652C8.14028 14.3716 8.13558 14.0556 8.03332 13.7649C7.93106 13.4742 7.73681 13.2248 7.48004 13.0545C6.85661 12.6395 6.34586 12.0763 5.99355 11.4155C5.64123 10.7546 5.45835 10.0166 5.46129 9.26773C5.46129 9.17423 5.46412 9.07931 5.46979 8.98723C8.64519 11.949 12.7641 13.6948 17.1006 13.9172C17.3196 13.9255 17.5376 13.8839 17.7381 13.7956C17.9386 13.7072 18.1164 13.5744 18.258 13.4072C18.3983 13.239 18.4977 13.0405 18.5483 12.8274C18.599 12.6143 18.5995 12.3923 18.5499 12.179C18.4688 11.8407 18.4274 11.4941 18.4266 11.1462C18.4281 9.9346 18.9101 8.77303 19.7668 7.91629C20.6236 7.05954 21.7852 6.57756 22.9968 6.57606C23.6203 6.57422 24.2375 6.70168 24.8093 6.95039C25.3811 7.1991 25.8951 7.56366 26.3189 8.02106C26.4823 8.1969 26.6879 8.328 26.9163 8.4019C27.1447 8.47579 27.3882 8.49002 27.6236 8.44323C28.2056 8.3301 28.7792 8.1777 29.3406 7.98706C28.9579 8.77023 28.4687 9.49676 27.8871 10.1461Z" fill="white"/>
</g>
</svg>
